<svg width="16" height="26" viewBox="0 0 16 26" fill="none" xmlns="http://www.w3.org/2000/svg">
<path d="M7.99997 25.1874C5.8878 25.1874 4.16184 24.8685 2.82209 24.2307C1.48236 23.5929 0.8125 22.766 0.8125 21.75C0.8125 21.141 1.0685 20.5998 1.5805 20.1262C2.09252 19.6526 2.79965 19.2636 3.70187 18.9591L4.24031 20.7452C3.84608 20.8894 3.51516 21.0516 3.24753 21.2319C2.97991 21.4122 2.80603 21.5849 2.72591 21.75C2.93264 22.1955 3.54761 22.5673 4.57084 22.8654C5.59409 23.1635 6.73713 23.3125 7.99997 23.3125C9.25478 23.3125 10.399 23.1635 11.4327 22.8654C12.4664 22.5673 13.0865 22.1955 13.2932 21.75C13.2131 21.5849 13.0392 21.4142 12.7716 21.2379C12.504 21.0617 12.1731 20.8974 11.7788 20.7452L12.3293 18.9591C13.2315 19.2636 13.9335 19.6526 14.4351 20.1262C14.9366 20.5998 15.1874 21.141 15.1874 21.75C15.1874 22.766 14.5176 23.5929 13.1778 24.2307C11.8381 24.8685 10.1121 25.1874 7.99997 25.1874ZM7.99997 17.8053C8.37497 17.0938 8.79484 16.4035 9.25959 15.7344C9.72434 15.0653 10.1907 14.4263 10.6587 13.8173C11.4455 12.7932 12.0741 11.8662 12.5445 11.036C13.0148 10.2059 13.25 9.17305 13.25 7.93747C13.25 6.48234 12.7388 5.24355 11.7163 4.22109C10.6939 3.19866 9.45509 2.68744 7.99997 2.68744C6.54484 2.68744 5.30605 3.19866 4.28359 4.22109C3.26116 5.24355 2.74994 6.48234 2.74994 7.93747C2.74994 9.17305 2.98712 10.2059 3.4615 11.036C3.93585 11.8662 4.56245 12.7932 5.34128 13.8173C5.80924 14.4263 6.27559 15.0653 6.74034 15.7344C7.20509 16.4035 7.62497 17.0938 7.99997 17.8053ZM7.99997 21.0528C7.79484 21.0528 7.60654 20.9851 7.43506 20.8497C7.2636 20.7143 7.13621 20.54 7.05287 20.3268C6.54164 18.9278 5.93347 17.7543 5.22834 16.8064C4.52322 15.8585 3.84293 14.9503 3.18747 14.0817C2.55286 13.2131 2.0088 12.3132 1.55528 11.3822C1.10176 10.4511 0.875 9.30285 0.875 7.93747C0.875 5.94228 1.5637 4.25599 2.94109 2.87859C4.31849 1.5012 6.00478 0.8125 7.99997 0.8125C9.99515 0.8125 11.6814 1.5012 13.0588 2.87859C14.4362 4.25599 15.1249 5.94228 15.1249 7.93747C15.1249 9.30285 14.9034 10.4511 14.4603 11.3822C14.0172 12.3132 13.4679 13.2131 12.8125 14.0817C12.1778 14.9503 11.5028 15.8585 10.7872 16.8064C10.0717 17.7543 9.45829 18.9278 8.94706 20.3268C8.86373 20.54 8.73633 20.7143 8.56487 20.8497C8.39339 20.9851 8.20509 21.0528 7.99997 21.0528ZM7.99997 10.2211C8.63297 10.2211 9.17182 9.99874 9.61653 9.55403C10.0612 9.10932 10.2836 8.57047 10.2836 7.93747C10.2836 7.30447 10.0612 6.76561 9.61653 6.32091C9.17182 5.8762 8.63297 5.65384 7.99997 5.65384C7.36697 5.65384 6.82811 5.8762 6.3834 6.32091C5.9387 6.76561 5.71634 7.30447 5.71634 7.93747C5.71634 8.57047 5.9387 9.10932 6.3834 9.55403C6.82811 9.99874 7.36697 10.2211 7.99997 10.2211Z" fill="white"/>
</svg>
